<svg width="40" height="40" viewBox="0 0 40 40" fill="none" xmlns="http://www.w3.org/2000/svg">
<circle cx="20" cy="20" r="20" fill="#F3F3F5"/>
<path d="M14.0476 31.3601L8.08005 34.6152C7.72986 34.8061 7.41514 35.0408 7.12231 35.2967C10.6016 38.2303 15.0929 40.0001 20.0001 40.0001C24.871 40.0001 29.3336 38.2567 32.8031 35.3631C32.4831 35.0929 32.1359 34.8499 31.751 34.6582L25.3608 31.4635C24.5351 31.0506 24.0136 30.2069 24.0136 29.2839V26.7767C24.1933 26.5722 24.3985 26.3095 24.6182 25.9993C25.4891 24.7691 26.148 23.4159 26.6046 21.9963C27.4242 21.7435 28.028 20.9865 28.028 20.0869V17.4106C28.028 16.822 27.7661 16.2959 27.3593 15.9276V12.059C27.3593 12.059 28.154 6.03857 20.0008 6.03857C11.8476 6.03857 12.6423 12.059 12.6423 12.059V15.9276C12.2348 16.2959 11.9736 16.822 11.9736 17.4106V20.0869C11.9736 20.7918 12.3442 21.4122 12.8989 21.7707C13.5676 24.6816 15.3185 26.7767 15.3185 26.7767V29.222C15.3178 30.1125 14.8302 30.9329 14.0476 31.3601Z" fill="#D2DAE1"/>
</svg>
