<svg width="46" height="46" viewBox="0 0 46 46" fill="none" xmlns="http://www.w3.org/2000/svg">
<path fill-rule="evenodd" clip-rule="evenodd" d="M34.1866 11.5596C34.5941 11.9671 34.5941 12.6278 34.1866 13.0353L13.0349 34.187C12.6274 34.5945 11.9667 34.5945 11.5592 34.187C11.1517 33.7795 11.1517 33.1188 11.5592 32.7113L32.7109 11.5596C33.1184 11.1521 33.7791 11.1521 34.1866 11.5596Z" fill="#BCBCBC"/>
<path fill-rule="evenodd" clip-rule="evenodd" d="M33.6947 34.1871C33.2872 34.5946 32.6265 34.5946 32.219 34.1871L11.0673 13.0354C10.6598 12.6278 10.6598 11.9672 11.0673 11.5597C11.4748 11.1521 12.1355 11.1521 12.543 11.5597L33.6947 32.7114C34.1022 33.1189 34.1022 33.7796 33.6947 34.1871Z" fill="#BCBCBC"/>
</svg>
