<svg width="18" height="19" viewBox="0 0 18 19" fill="none" xmlns="http://www.w3.org/2000/svg">
<path d="M10.6871 2H6.37046C6.23586 2 6.16855 2 6.10913 2.0205C6.05658 2.03862 6.00872 2.0682 5.96901 2.10709C5.92411 2.15107 5.89401 2.21127 5.83381 2.33167L2.68381 8.63167C2.54005 8.91919 2.46817 9.06295 2.48543 9.17981C2.50051 9.28185 2.55695 9.37318 2.64148 9.4323C2.73828 9.5 2.89901 9.5 3.22046 9.5H7.87464L5.62464 17L14.7695 7.51648C15.078 7.19653 15.2323 7.03655 15.2413 6.89966C15.2491 6.78084 15.2 6.66536 15.1091 6.58852C15.0043 6.5 14.782 6.5 14.3376 6.5H8.99964L10.6871 2Z" stroke="white" stroke-width="2" stroke-linecap="round" stroke-linejoin="round"/>
</svg>
