<svg width="18" height="18" viewBox="0 0 18 18" fill="none" xmlns="http://www.w3.org/2000/svg">
<path d="M10.6867 1.5H6.36998C6.23537 1.5 6.16806 1.5 6.10864 1.5205C6.0561 1.53862 6.00823 1.5682 5.96852 1.60709C5.92362 1.65107 5.89352 1.71127 5.83332 1.83167L2.68332 8.13167C2.53956 8.41919 2.46768 8.56295 2.48495 8.67981C2.50002 8.78185 2.55646 8.87318 2.64099 8.9323C2.73779 9 2.89852 9 3.21998 9H7.87416L5.62416 16.5L14.769 7.01648C15.0775 6.69653 15.2318 6.53655 15.2408 6.39966C15.2486 6.28084 15.1996 6.16536 15.1086 6.08852C15.0038 6 14.7815 6 14.3371 6H8.99916L10.6867 1.5Z" stroke="#E60069" stroke-width="2" stroke-linecap="round" stroke-linejoin="round"/>
</svg>
