<svg width="104" height="104" viewBox="0 0 104 104" fill="none" xmlns="http://www.w3.org/2000/svg">
<circle cx="52" cy="52" r="52" fill="#E4E4E4"/>
<path d="M15.9838 53.1743L18.8872 41.3375C18.949 41.0905 19.08 40.8726 19.2801 40.6801C19.4802 40.4876 19.6912 40.3787 19.9095 40.3569L21.4776 40.2007C21.7068 40.1789 21.8778 40.2479 21.9906 40.4077C22.1034 40.5675 22.1288 40.7746 22.067 41.0215L19.1673 52.8365C19.1055 53.0835 18.9745 53.3014 18.7707 53.4903C18.567 53.6792 18.356 53.7845 18.1377 53.8063L16.5696 53.9625C16.3513 53.9843 16.1839 53.9189 16.0675 53.7663C15.9511 53.6138 15.922 53.414 15.9838 53.167V53.1743Z" fill="url(#paint0_linear_24_7471)"/>
<path d="M21.143 52.6588L24.0427 40.8438C24.1082 40.5859 24.2392 40.3571 24.4393 40.1646C24.6394 39.9721 24.8504 39.8632 25.0687 39.8414L29.7875 39.3692C32.2288 39.1259 33.8696 39.4963 34.7137 40.4842C35.5541 41.4721 35.6887 43.1356 35.1139 45.4819C34.5391 47.8282 33.5604 49.6006 32.1815 50.8065C30.8026 52.0123 28.8925 52.7351 26.4476 52.9784L21.7288 53.4506C21.5105 53.4724 21.3431 53.407 21.2267 53.2545C21.1103 53.1019 21.0812 52.9021 21.143 52.6552V52.6588ZM24.7704 50.5268L27.0152 50.3016C28.5214 50.1527 29.6274 49.7386 30.3296 49.0631C31.0318 48.3875 31.5666 47.2979 31.9341 45.7979C32.3015 44.2942 32.2906 43.2591 31.8977 42.6925C31.5048 42.1259 30.5515 41.9153 29.038 42.0678L26.7932 42.293L24.7704 50.5304V50.5268Z" fill="url(#paint1_linear_24_7471)"/>
<path d="M34.9536 51.2419L37.8533 39.4269C37.9151 39.1799 38.0425 38.962 38.2426 38.7767C38.4427 38.5915 38.6501 38.4862 38.872 38.4644L48.6007 37.4946C48.819 37.4728 48.9863 37.5419 49.0955 37.7053C49.2083 37.8651 49.2337 38.0721 49.1719 38.3191L48.9536 39.2126C48.8917 39.4596 48.7644 39.6775 48.5679 39.8664C48.3715 40.0552 48.1605 40.1605 47.9422 40.1823L40.5929 40.916L39.9162 43.6691L46.2467 43.0371C46.465 43.0153 46.6324 43.0843 46.7452 43.2441C46.858 43.404 46.8834 43.6073 46.8216 43.8543L46.6033 44.7514C46.5414 44.9984 46.4141 45.2163 46.2176 45.4088C46.0212 45.5977 45.8101 45.703 45.5919 45.7248L39.2613 46.3568L38.5737 49.1571L45.9084 48.427C46.1267 48.4053 46.2904 48.4706 46.3995 48.6268C46.5051 48.783 46.5305 48.9827 46.4687 49.2297L46.2467 50.1414C46.1849 50.3883 46.0575 50.6063 45.8538 50.7951C45.6537 50.984 45.4427 51.0893 45.2244 51.1111L35.5357 52.0772C35.3174 52.099 35.1501 52.03 35.0336 51.8738C34.9172 51.714 34.8918 51.507 34.9572 51.2455L34.9536 51.2419Z" fill="url(#paint2_linear_24_7471)"/>
<path d="M47.8149 49.9963L50.7146 38.1813C50.7801 37.9234 50.911 37.6946 51.1111 37.5021C51.3113 37.3096 51.5223 37.2007 51.7406 37.1789L53.3268 37.0191C53.5451 36.9973 53.7125 37.0663 53.8216 37.2297C53.9344 37.3895 53.9563 37.6002 53.8944 37.8617L51.4386 47.8643L58.7879 47.1306C59.0062 47.1088 59.1735 47.1778 59.2827 47.3413C59.3918 47.5047 59.4209 47.7081 59.3591 47.9551L59.1408 48.8486C59.0789 49.0956 58.9516 49.3135 58.7551 49.5023C58.5586 49.6912 58.3476 49.7965 58.1293 49.8183L48.4007 50.7881C48.1824 50.8099 48.015 50.7445 47.8986 50.5919C47.7821 50.4394 47.753 50.2396 47.8149 49.9927V49.9963Z" fill="url(#paint3_linear_24_7471)"/>
<path d="M60.713 48.885L60.9094 47.5847C60.9385 47.3886 61.0004 47.2215 61.095 47.0871C61.1896 46.9527 61.2915 46.8801 61.4042 46.8692L66.2395 46.3861C66.3559 46.3752 66.4396 46.4297 66.4942 46.5496C66.5487 46.6694 66.5633 46.8256 66.5342 47.0254L66.3377 48.3256C66.3086 48.5218 66.2467 48.6852 66.1522 48.816C66.0576 48.9467 65.9557 49.0193 65.8393 49.0302L61.004 49.5133C60.8876 49.5242 60.8039 49.4734 60.7494 49.3571C60.6948 49.2409 60.6839 49.0847 60.713 48.8886V48.885Z" fill="url(#paint4_linear_24_7471)"/>
<path d="M10.8686 70.51L15.1035 57.1804C15.1981 56.8862 15.3837 56.6284 15.6675 56.4068C15.9512 56.1853 16.2496 56.0581 16.5661 56.0254L21.5141 55.5315C21.8307 55.4988 22.0999 55.5714 22.3182 55.7421C22.5401 55.9129 22.6529 56.1344 22.6602 56.4032L23.3333 65.2181L29.8384 55.684C30.024 55.3971 30.2932 55.1356 30.6389 54.9068C30.9881 54.678 31.3192 54.5472 31.6357 54.5145L36.591 54.0206C36.9076 53.9879 37.1404 54.0641 37.2932 54.2421C37.446 54.4201 37.4751 54.6562 37.3805 54.9504L33.1456 68.2799C33.051 68.5741 32.8618 68.8284 32.5708 69.0499C32.2834 69.2678 31.9777 69.3949 31.6539 69.4276L29.431 69.6492C29.1108 69.6819 28.867 69.6092 28.7033 69.4349C28.5396 69.2606 28.5032 69.0281 28.5978 68.7339L31.9341 58.2373L24.3265 69.2206C24.13 69.4966 23.8608 69.7436 23.5188 69.9615C23.1768 70.1795 22.8494 70.303 22.5365 70.3356L20.8119 70.5063C20.4991 70.539 20.2335 70.4737 20.0152 70.3102C19.7969 70.1468 19.6732 69.9397 19.6368 69.6891L18.7491 59.5521L15.4128 70.0487C15.3182 70.3429 15.129 70.5971 14.8416 70.8187C14.5542 71.0366 14.2485 71.1637 13.9284 71.1964L11.709 71.418C11.3889 71.4507 11.1451 71.378 10.9778 71.2037C10.8104 71.0294 10.774 70.7969 10.865 70.5027L10.8686 70.51Z" fill="#E52421"/>
<path d="M34.9681 68.149L41.2441 57.6197C42.9504 54.7504 46.0648 53.0906 50.5835 52.6293L57.085 51.9792C57.3834 51.9501 57.598 52.0264 57.7326 52.2044C57.8672 52.386 57.8891 52.6075 57.8054 52.8726L53.5414 66.2894C53.454 66.569 53.2649 66.816 52.9811 67.0267C52.6973 67.2373 52.3953 67.3608 52.0824 67.3935L49.8158 67.6187C49.4847 67.6514 49.2446 67.5824 49.0918 67.4153C48.939 67.2482 48.9099 67.0158 49.0008 66.7216L49.8595 64.0157L41.3168 64.8692L39.6396 67.6623C39.465 67.9637 39.2067 68.2216 38.8647 68.4359C38.5227 68.6538 38.1916 68.7773 37.8787 68.81L35.4884 69.0497C35.1718 69.0824 34.9645 69.0098 34.8662 68.8318C34.7935 68.7156 34.7825 68.5739 34.8371 68.4068C34.8699 68.3269 34.9135 68.2398 34.9681 68.1453V68.149ZM43.1978 61.7421L50.8309 60.9793L52.6136 55.3715L49.1864 55.7129C48.4151 55.7892 47.6838 56.0507 46.9852 56.501C46.2867 56.9514 45.7337 57.5144 45.3226 58.1936L43.1942 61.7384L43.1978 61.7421Z" fill="#E52421"/>
<path d="M56.4448 66.3512C56.4339 66.2387 56.4375 66.1261 56.4521 66.0135C56.5285 65.6975 56.7468 65.3306 57.1106 64.913L70.0992 50.0471L64.2052 37.9342C64.0306 37.5856 63.9833 37.2478 64.0633 36.9136C64.0961 36.7829 64.1434 36.6594 64.2089 36.5395C64.449 36.1073 64.831 35.8676 65.3513 35.8131L69.4516 35.4027C70.7213 35.2756 71.6673 35.8495 72.2894 37.1243L75.6839 44.1269L82.7385 36.0783C84.0082 34.6291 85.2852 33.8337 86.5732 33.692L90.6771 33.2889C91.1974 33.238 91.4775 33.4124 91.5176 33.8155C91.5285 33.9281 91.5176 34.048 91.4848 34.1787C91.4084 34.4947 91.1901 34.8615 90.8263 35.2792L78.6054 49.2008L84.8341 62.149C85.0087 62.4977 85.056 62.8354 84.976 63.1696C84.9432 63.3003 84.8923 63.4166 84.8159 63.5219C84.5758 63.9541 84.1938 64.1975 83.6735 64.2483L79.6132 64.6551C78.3435 64.7822 77.4012 64.2156 76.7899 62.9553L73.0207 55.1246L65.1584 64.1175C63.8887 65.5667 62.6189 66.3549 61.3455 66.482L57.2853 66.8888C56.765 66.9396 56.4848 66.7653 56.4448 66.3585V66.3512Z" fill="#E52421"/>
<defs>
<linearGradient id="paint0_linear_24_7471" x1="15.369" y1="47.0217" x2="63.07" y2="47.8307" gradientUnits="userSpaceOnUse">
<stop stop-color="#1C2545"/>
<stop offset="1" stop-color="#29B5E9"/>
</linearGradient>
<linearGradient id="paint1_linear_24_7471" x1="15.3837" y1="46.1902" x2="63.0847" y2="46.9992" gradientUnits="userSpaceOnUse">
<stop stop-color="#1C2545"/>
<stop offset="1" stop-color="#29B5E9"/>
</linearGradient>
<linearGradient id="paint2_linear_24_7471" x1="15.4126" y1="44.3338" x2="63.1136" y2="45.1428" gradientUnits="userSpaceOnUse">
<stop stop-color="#1C2545"/>
<stop offset="1" stop-color="#29B5E9"/>
</linearGradient>
<linearGradient id="paint3_linear_24_7471" x1="15.4308" y1="43.3061" x2="63.1319" y2="44.1152" gradientUnits="userSpaceOnUse">
<stop stop-color="#1C2545"/>
<stop offset="1" stop-color="#29B5E9"/>
</linearGradient>
<linearGradient id="paint4_linear_24_7471" x1="15.3658" y1="47.1343" x2="63.0669" y2="47.9434" gradientUnits="userSpaceOnUse">
<stop stop-color="#1C2545"/>
<stop offset="1" stop-color="#29B5E9"/>
</linearGradient>
</defs>
</svg>
