<svg width="110" height="52" viewBox="0 0 110 52" fill="none" xmlns="http://www.w3.org/2000/svg">
<g clip-path="url(#clip0_5514_1341)">
<path d="M7.04174 27.1141L10.999 10.9804C11.0833 10.6438 11.2618 10.3467 11.5346 10.0843C11.8073 9.82197 12.0949 9.67346 12.3925 9.64376L14.5298 9.43088C14.8422 9.40118 15.0753 9.49524 15.229 9.71306C15.3827 9.93088 15.4175 10.2131 15.3331 10.5497L11.3808 26.6537C11.2965 26.9903 11.118 27.2873 10.8403 27.5447C10.5626 27.8022 10.275 27.9457 9.97746 27.9754L7.84014 28.1883C7.5426 28.218 7.31449 28.1289 7.1558 27.921C6.99711 27.7131 6.95744 27.4408 7.04174 27.1042V27.1141Z" fill="url(#paint0_linear_5514_1341)"/>
<path d="M14.0736 26.4109L18.0259 10.307C18.1151 9.95549 18.2937 9.6436 18.5664 9.38123C18.8391 9.11885 19.1268 8.97034 19.4243 8.94063L25.8561 8.29707C29.1836 7.96539 31.4201 8.47034 32.5706 9.81687C33.7161 11.1634 33.8996 13.4307 33.116 16.6288C32.3325 19.8268 30.9986 22.2426 29.1191 23.8862C27.2397 25.5297 24.6362 26.5149 21.3038 26.8466L14.872 27.4901C14.5744 27.5198 14.3463 27.4307 14.1876 27.2228C14.0289 27.0149 13.9893 26.7426 14.0736 26.406V26.4109ZM19.0177 23.505L22.0774 23.1981C24.1304 22.9951 25.6379 22.4307 26.595 21.5099C27.5521 20.5891 28.281 19.104 28.7819 17.0594C29.2828 15.0099 29.2679 13.5991 28.7323 12.8268C28.1967 12.0545 26.8975 11.7674 24.8345 11.9753L21.7749 12.2822L19.0177 23.5099V23.505Z" fill="url(#paint1_linear_5514_1341)"/>
<path d="M32.8978 24.4803L36.8501 8.37631C36.9344 8.03967 37.108 7.74264 37.3808 7.49017C37.6535 7.23769 37.9362 7.09413 38.2387 7.06442L51.499 5.74264C51.7965 5.71294 52.0246 5.807 52.1734 6.02977C52.3271 6.24759 52.3618 6.52977 52.2775 6.8664L51.98 8.08423C51.8957 8.42086 51.7221 8.71789 51.4543 8.97532C51.1865 9.23274 50.8989 9.37631 50.6014 9.40601L40.5843 10.406L39.6619 14.1585L48.2905 13.2971C48.588 13.2674 48.8162 13.3615 48.9699 13.5793C49.1236 13.7971 49.1583 14.0743 49.074 14.411L48.7765 15.6337C48.6922 15.9704 48.5186 16.2674 48.2508 16.5298C47.983 16.7872 47.6954 16.9308 47.3979 16.9605L38.7693 17.8218L37.832 21.6387L47.8293 20.6436C48.1269 20.6139 48.35 20.703 48.4988 20.9159C48.6426 21.1288 48.6773 21.4011 48.593 21.7377L48.2905 22.9803C48.2062 23.3169 48.0326 23.6139 47.7549 23.8714C47.4822 24.1288 47.1946 24.2723 46.897 24.302L33.6913 25.6189C33.3937 25.6486 33.1656 25.5545 33.0069 25.3417C32.8483 25.1238 32.8135 24.8417 32.9028 24.4852L32.8978 24.4803Z" fill="url(#paint2_linear_5514_1341)"/>
<path d="M50.4278 22.7823L54.3801 6.67836C54.4694 6.32688 54.6479 6.015 54.9207 5.75262C55.1934 5.49024 55.481 5.34173 55.7786 5.31203L57.9407 5.09421C58.2382 5.0645 58.4663 5.15856 58.6151 5.38133C58.7688 5.59916 58.7986 5.88628 58.7143 6.24272L55.367 19.8764L65.3841 18.8764C65.6816 18.8467 65.9097 18.9407 66.0585 19.1635C66.2073 19.3863 66.247 19.6635 66.1627 20.0001L65.8651 21.218C65.7808 21.5546 65.6072 21.8516 65.3395 22.1091C65.0717 22.3665 64.7841 22.51 64.4865 22.5397L51.2262 23.8615C50.9287 23.8912 50.7006 23.8021 50.5419 23.5942C50.3832 23.3863 50.3435 23.114 50.4278 22.7774V22.7823Z" fill="url(#paint3_linear_5514_1341)"/>
<path d="M68.0074 21.2674L68.2752 19.4951C68.3148 19.2278 68.3991 19.0001 68.5281 18.8169C68.657 18.6338 68.7959 18.5347 68.9496 18.5199L75.5401 17.8615C75.6988 17.8466 75.8128 17.9209 75.8872 18.0842C75.9616 18.2476 75.9814 18.4605 75.9417 18.7328L75.674 20.505C75.6343 20.7724 75.55 20.9951 75.421 21.1734C75.2921 21.3516 75.1533 21.4506 74.9946 21.4654L68.4041 22.1238C68.2454 22.1387 68.1314 22.0694 68.057 21.911C67.9826 21.7526 67.9677 21.5397 68.0074 21.2724V21.2674Z" fill="url(#paint4_linear_5514_1341)"/>
<path d="M0.0694254 50.7426L5.84167 32.5743C5.97061 32.1733 6.22351 31.8218 6.61031 31.5199C6.99711 31.2179 7.40375 31.0446 7.83518 31.0001L14.5794 30.3268C15.0108 30.2822 15.3778 30.3812 15.6753 30.6139C15.9778 30.8466 16.1315 31.1486 16.1415 31.5149L17.0589 43.5298L25.9255 30.5347C26.1784 30.1436 26.5454 29.7872 27.0165 29.4753C27.4926 29.1634 27.9438 28.9852 28.3753 28.9407L35.1294 28.2674C35.5608 28.2228 35.8782 28.3268 36.0865 28.5694C36.2947 28.8119 36.3344 29.1337 36.2055 29.5347L30.4332 47.703C30.3043 48.104 30.0464 48.4506 29.6497 48.7525C29.258 49.0496 28.8414 49.2228 28.4001 49.2674L25.3701 49.5694C24.9337 49.6139 24.6015 49.5149 24.3783 49.2773C24.1552 49.0397 24.1056 48.7228 24.2345 48.3218L28.7819 34.0149L18.4127 48.9852C18.1449 49.3614 17.7779 49.6981 17.3118 49.9951C16.8456 50.2921 16.3993 50.4605 15.9729 50.505L13.6223 50.7377C13.1958 50.7822 12.8338 50.6931 12.5363 50.4704C12.2388 50.2476 12.0701 49.9654 12.0206 49.6238L10.8106 35.807L6.26319 50.1139C6.13425 50.5149 5.87639 50.8614 5.48463 51.1634C5.09287 51.4605 4.67631 51.6337 4.23992 51.6783L1.21495 51.9803C0.778559 52.0248 0.446308 51.9258 0.218195 51.6882C-0.00991821 51.4506 -0.059508 51.1337 0.0644664 50.7327L0.0694254 50.7426Z" fill="#E52421"/>
<path d="M32.9177 47.5249L41.4719 33.1734C43.7977 29.2625 48.0426 27.0001 54.2016 26.3714L63.0633 25.4853C63.4699 25.4457 63.7625 25.5496 63.946 25.7922C64.1295 26.0397 64.1592 26.3417 64.0452 26.7031L58.2332 44.9902C58.1142 45.3714 57.8564 45.708 57.4696 45.9952C57.0828 46.2823 56.6712 46.4506 56.2447 46.4952L53.1553 46.8021C52.704 46.8466 52.3767 46.7526 52.1684 46.5249C51.9601 46.2971 51.9205 45.9803 52.0444 45.5793L53.2148 41.8912L41.5711 43.0546L39.285 46.8615C39.047 47.2724 38.6949 47.6239 38.2287 47.916C37.7626 48.213 37.3113 48.3813 36.8849 48.4259L33.6268 48.7526C33.1954 48.7971 32.9127 48.6981 32.7788 48.4556C32.6796 48.2971 32.6648 48.1041 32.7392 47.8763C32.7838 47.7674 32.8433 47.6486 32.9177 47.5199V47.5249ZM44.1349 38.7922L54.5388 37.7526L56.9687 30.109L52.2974 30.5744C51.2461 30.6783 50.2493 31.0348 49.2972 31.6486C48.3451 32.2625 47.5913 33.0298 47.0309 33.9556L44.1299 38.7872L44.1349 38.7922Z" fill="#E52421"/>
<path d="M62.1905 45.0744C62.1756 44.9209 62.1806 44.7674 62.2004 44.614C62.3046 44.1833 62.6021 43.6833 63.098 43.114L80.8016 22.8516L72.768 6.3417C72.53 5.86646 72.4655 5.40606 72.5746 4.95062C72.6192 4.7724 72.6837 4.60408 72.773 4.44071C73.1003 3.85161 73.621 3.52487 74.3301 3.45062L79.9189 2.89121C81.6495 2.71794 82.9389 3.50012 83.7869 5.23774L88.4136 14.7823L98.029 3.812C99.7597 1.83675 101.5 0.752596 103.256 0.559526L108.85 0.0100214C109.559 -0.0592856 109.94 0.178338 109.995 0.727843C110.01 0.881308 109.995 1.04467 109.95 1.22289C109.846 1.65359 109.549 2.15359 109.053 2.72289L92.3956 21.6981L100.885 39.3467C101.123 39.8219 101.188 40.2823 101.079 40.7377C101.034 40.916 100.965 41.0744 100.861 41.2179C100.533 41.807 100.013 42.1387 99.3035 42.208L93.7693 42.7625C92.0386 42.9358 90.7542 42.1635 89.9211 40.4457L84.7836 29.7724L74.0673 42.0298C72.3366 44.0051 70.6059 45.0793 68.8703 45.2526L63.336 45.807C62.6269 45.8764 62.2451 45.6387 62.1905 45.0843V45.0744Z" fill="#E52421"/>
</g>
<defs>
<linearGradient id="paint0_linear_5514_1341" x1="6.20367" y1="18.7279" x2="71.2207" y2="19.8307" gradientUnits="userSpaceOnUse">
<stop stop-color="#1C2545"/>
<stop offset="1" stop-color="#29B5E9"/>
</linearGradient>
<linearGradient id="paint1_linear_5514_1341" x1="6.22351" y1="17.5941" x2="71.2406" y2="18.6969" gradientUnits="userSpaceOnUse">
<stop stop-color="#1C2545"/>
<stop offset="1" stop-color="#29B5E9"/>
</linearGradient>
<linearGradient id="paint2_linear_5514_1341" x1="6.26319" y1="15.0644" x2="71.2802" y2="16.1672" gradientUnits="userSpaceOnUse">
<stop stop-color="#1C2545"/>
<stop offset="1" stop-color="#29B5E9"/>
</linearGradient>
<linearGradient id="paint3_linear_5514_1341" x1="6.28798" y1="13.6635" x2="71.305" y2="14.7663" gradientUnits="userSpaceOnUse">
<stop stop-color="#1C2545"/>
<stop offset="1" stop-color="#29B5E9"/>
</linearGradient>
<linearGradient id="paint4_linear_5514_1341" x1="6.19872" y1="18.8813" x2="71.2158" y2="19.9841" gradientUnits="userSpaceOnUse">
<stop stop-color="#1C2545"/>
<stop offset="1" stop-color="#29B5E9"/>
</linearGradient>
<clipPath id="clip0_5514_1341">
<rect width="110" height="52" fill="white"/>
</clipPath>
</defs>
</svg>
