<svg width="73" height="29" viewBox="0 0 73 29" fill="none" xmlns="http://www.w3.org/2000/svg">
<path d="M65.9309 9.11963V20.0272H62.0864V12.3383H58.2419V20.0272H54.3975V9.11963H65.9309Z" fill="black"/>
<path fill-rule="evenodd" clip-rule="evenodd" d="M46.3502 20.3847C49.9265 20.3847 52.251 18.3283 52.251 15.0203C52.251 11.8017 50.4629 10.0135 47.2443 10.0135C45.7244 10.0135 44.5621 10.6394 43.668 11.5334C43.9363 9.74532 45.4562 8.31482 47.2443 8.31482C47.5125 8.31482 50.4629 8.31482 50.4629 8.31482L52.251 5.09619C52.251 5.09619 48.4066 5.09619 46.6185 5.09619C42.774 5.09619 40.0918 8.67244 40.0918 13.0533C40.1812 18.2389 42.8634 20.3847 46.3502 20.3847ZM46.3502 12.6957C47.5125 12.6957 48.4066 13.5898 48.4066 15.0203C48.4066 16.1826 47.5125 17.3448 46.3502 17.3448C45.188 17.3448 44.0257 16.4508 44.0257 15.0203C44.2939 13.5898 45.188 12.6957 46.3502 12.6957Z" fill="black"/>
<path d="M37.2311 16.5402C37.2311 16.5402 36.337 17.166 34.9065 17.166C33.3866 17.166 31.9561 16.2719 31.9561 14.4838C31.9561 12.6957 33.1184 11.8016 34.9065 11.8016C36.0688 11.8016 37.2311 12.4275 37.2311 12.4275C37.2311 12.4275 38.1252 10.6394 38.751 9.74529C37.8569 9.11944 36.4264 8.58301 34.9065 8.58301C31.0621 8.58301 28.3799 10.9076 28.3799 14.4838C28.3799 18.0601 31.0621 20.3846 34.9065 20.3846C36.0688 20.3846 37.5887 20.1164 38.4828 19.4906L37.2311 16.5402Z" fill="black"/>
<path d="M6.20703 7.33105L9.24684 12.6954V16.0035L6.20703 21.3678V7.33105Z" fill="#5B57A2"/>
<path d="M17.9189 10.8183L20.7799 9.11963H26.6808L18.0084 14.484C17.9189 14.3946 17.9189 10.8183 17.9189 10.8183Z" fill="#D90751"/>
<path d="M17.9197 7.33117V14.5731L14.8799 12.6955V1.9668L17.9197 7.33117Z" fill="#FAB718"/>
<path d="M26.6815 9.02999H20.7807L17.9197 7.33127L14.8799 1.78809L26.6815 9.02999Z" fill="#ED6F26"/>
<path d="M17.9197 21.547V18.0601L14.8799 16.1826V26.9114L17.9197 21.547Z" fill="#63B22F"/>
<path d="M20.7801 19.8483L9.42555 12.8746L6.38574 7.51025L26.681 19.8483H20.7801Z" fill="#1487C9"/>
<path d="M14.8799 26.9112L17.9197 21.5469L20.7807 19.8481H26.6815L14.8799 26.9112Z" fill="#017F36"/>
<path d="M6.38574 21.5471L14.9687 16.1827L12.1077 14.3052L9.42555 16.0039L6.38574 21.5471Z" fill="#984995"/>
</svg>
