<svg width="72" height="29" viewBox="0 0 72 29" fill="none" xmlns="http://www.w3.org/2000/svg">
<path d="M25.1782 27.5373V25.8386C25.1782 25.1233 24.8206 24.7657 24.1053 24.7657C23.7477 24.7657 23.3901 24.9445 23.0325 25.3021C22.8537 24.9445 22.496 24.7657 22.1384 24.7657C21.7808 24.7657 21.602 24.7657 21.2443 25.1233V24.7657H20.8867V27.5373H21.4232V26.0174C21.4232 25.4809 21.7808 25.3021 22.1384 25.3021C22.496 25.3021 22.8537 25.4809 22.8537 26.0174V27.5373H23.3901V26.0174C23.3901 25.4809 23.7477 25.3021 24.1053 25.3021C24.463 25.3021 24.8206 25.4809 24.8206 26.0174V27.5373H25.1782ZM34.2083 24.9445H33.1354V24.0504H32.5989V24.9445H32.0625V25.4809H32.5989V26.7326C32.5989 27.4479 32.7777 27.8055 33.493 27.8055C33.6718 27.8055 34.0294 27.8055 34.2083 27.6267L34.0294 27.0903C33.8506 27.2691 33.6718 27.2691 33.493 27.2691C33.1354 27.2691 33.1354 27.0903 33.1354 26.7326V25.3021H34.2083V24.9445ZM39.3044 24.7657C38.9468 24.7657 38.768 24.9445 38.5892 25.1233V24.7657H38.0527V27.5373H38.5892V26.0174C38.5892 25.4809 38.768 25.3021 39.3044 25.3021C39.4832 25.3021 39.4832 25.3021 39.662 25.3021L39.8408 24.7657C39.5726 24.7657 39.4832 24.7657 39.3044 24.7657ZM31.6155 25.1233C31.2578 24.9445 30.9002 24.7657 30.5426 24.7657C29.8273 24.7657 29.4697 25.1233 29.4697 25.6598C29.4697 26.1962 29.8273 26.375 30.3638 26.5538H30.7214C31.079 26.5538 31.2578 26.7326 31.2578 26.9114C31.2578 27.0903 31.079 27.2691 30.5426 27.2691C30.185 27.2691 29.8273 27.0903 29.6485 26.9114L29.2909 27.2691C29.6485 27.6267 30.185 27.6267 30.5426 27.6267C31.4367 27.6267 31.7943 27.2691 31.7943 26.7326C31.7943 26.1962 31.4367 26.0174 30.9002 25.8386H30.5426C30.3638 25.8386 30.0062 25.6598 30.0062 25.4809C30.0062 25.3021 30.185 25.1233 30.5426 25.1233C30.9002 25.1233 31.2578 25.3021 31.4367 25.3021L31.6155 25.1233ZM39.9302 26.1962C39.9302 27.0903 40.4667 27.6267 41.3608 27.6267C41.7184 27.6267 42.076 27.4479 42.4336 27.2691L42.076 26.822C41.8972 27.0009 41.5396 27.0009 41.3608 27.0009C40.8243 27.0009 40.4667 26.6432 40.4667 26.1068C40.4667 25.5704 40.8243 25.2127 41.3608 25.2127C41.5396 25.2127 41.8972 25.2127 42.076 25.3915L42.4336 25.0339C42.076 24.8551 41.8972 24.6763 41.3608 24.6763C40.4667 24.7657 39.9302 25.4809 39.9302 26.1962ZM36.1752 24.7657C35.2811 24.7657 34.7447 25.3021 34.7447 26.1962C34.7447 27.0903 35.2811 27.6267 36.1752 27.6267C36.5328 27.6267 37.0692 27.4479 37.2481 27.2691L36.801 26.822C36.6222 27.0009 36.2646 27.1797 35.907 27.1797C35.5493 27.1797 35.1917 27.0009 35.0129 26.4644H37.0692V26.2856C37.3375 25.3021 36.801 24.7657 36.1752 24.7657ZM35.9964 25.3021C36.354 25.3021 36.7116 25.6598 36.7116 26.0174H35.2811C35.2811 25.6598 35.6388 25.3021 35.9964 25.3021ZM28.6651 26.1962V24.7657H28.1286V25.1233C27.9498 24.9445 27.5922 24.7657 27.2346 24.7657C26.5193 24.7657 25.8041 25.3021 25.8041 26.1962C25.8041 27.0903 26.3405 27.6267 27.2346 27.6267C27.5922 27.6267 27.9498 27.4479 28.1286 27.2691V27.6267H28.6651V26.1962ZM26.4299 26.1962C26.4299 25.6598 26.7875 25.3021 27.324 25.3021C27.8604 25.3021 28.218 25.6598 28.218 26.1962C28.218 26.7326 27.8604 27.0903 27.324 27.0903C26.7875 27.1797 26.4299 26.6432 26.4299 26.1962ZM47.6192 24.7657C47.2616 24.7657 47.0827 24.9445 46.9039 25.1233V24.7657H46.3675V27.5373H46.9039V26.0174C46.9039 25.4809 47.0828 25.3021 47.6192 25.3021C47.798 25.3021 47.798 25.3021 47.9768 25.3021L48.1556 24.7657C47.9768 24.7657 47.798 24.7657 47.6192 24.7657ZM52.0895 27.1797C52.2683 27.1797 52.2683 27.1797 52.2683 27.1797C52.2683 27.1797 52.2683 27.1797 52.2683 27.3585C52.2683 27.3585 52.2683 27.3585 52.2683 27.5373C52.2683 27.5373 52.2683 27.5373 52.2683 27.7161C52.2683 27.7161 52.2683 27.7161 52.0895 27.7161C52.0895 27.7161 52.0895 27.7161 51.9107 27.7161C51.9107 27.7161 51.9107 27.7161 51.7319 27.7161C51.7319 27.7161 51.7319 27.7161 51.5531 27.7161C51.5531 27.7161 51.5531 27.7161 51.5531 27.5373C51.5531 27.5373 51.5531 27.5373 51.5531 27.3585C51.5531 27.3585 51.5531 27.3585 51.5531 27.1797C51.9107 27.1797 51.9107 27.1797 52.0895 27.1797C51.9107 27.1797 51.9107 27.1797 52.0895 27.1797ZM52.0895 27.7161C52.2683 27.7161 52.2683 27.5373 52.2683 27.5373C51.7319 27.5373 51.9107 27.5373 52.0895 27.7161ZM52.0895 27.3585C52.0895 27.5373 52.0895 27.5373 52.0895 27.3585V27.3585ZM51.9107 27.3585C52.0895 27.5373 52.0895 27.5373 51.9107 27.3585C52.0895 27.3585 52.0895 27.3585 51.9107 27.3585ZM45.5628 26.1962V24.7657H45.0264V25.1233C44.8476 24.9445 44.49 24.7657 44.1323 24.7657C43.4171 24.7657 42.7018 25.3021 42.7018 26.1962C42.7018 27.0903 43.2383 27.6267 44.1323 27.6267C44.49 27.6267 44.8476 27.4479 45.0264 27.2691V27.6267H45.5628V26.1962ZM43.2383 26.1962C43.2383 25.6598 43.5959 25.3021 44.1323 25.3021C44.6688 25.3021 45.0264 25.6598 45.0264 26.1962C45.0264 26.7326 44.6688 27.0903 44.1323 27.0903C43.5959 27.1797 43.2383 26.6432 43.2383 26.1962ZM51.106 26.1962V23.7822H50.5696V25.2127C50.3908 25.0339 50.0332 24.8551 49.6755 24.8551C48.9603 24.8551 48.245 25.3915 48.245 26.2856C48.245 27.1797 48.7815 27.7161 49.6755 27.7161C50.0332 27.7161 50.3908 27.5373 50.5696 27.3585V27.7161H51.106V26.1962ZM48.7815 26.1962C48.7815 25.6598 49.1391 25.3021 49.6755 25.3021C50.212 25.3021 50.5696 25.6598 50.5696 26.1962C50.5696 26.7326 50.212 27.0903 49.6755 27.0903C49.1391 27.1797 48.7815 26.6432 48.7815 26.1962Z" fill="black"/>
<path d="M40.8245 3.93408H30.9004V20.2954H40.8245V3.93408Z" fill="#FF5F00"/>
<path d="M31.9731 12.0699C31.9731 8.76182 33.493 5.81142 35.9964 3.93389C34.2977 2.50339 31.9731 1.69873 29.5592 1.69873C23.8372 1.69873 19.0986 6.34786 19.0986 12.0699C19.0986 17.7919 23.7478 22.5304 29.5592 22.5304C31.9731 22.5304 34.2083 21.6363 35.9964 20.2952C33.5824 18.3283 31.9731 15.3779 31.9731 12.0699Z" fill="#EB001B"/>
<path d="M51.5528 18.1494H51.7316H51.374H51.5528ZM52.2681 18.507V18.1494H52.0893L51.9105 18.507L51.7316 18.1494H51.5528L51.7316 18.507L51.9105 18.1494L52.2681 18.507Z" fill="#F79E1B"/>
<path d="M52.6263 12.0701C52.6263 17.7921 47.9772 22.5306 42.1658 22.5306C39.7518 22.5306 37.5166 21.6366 35.7285 20.2955C38.1425 18.4179 39.7518 15.4675 39.7518 12.1595C39.7518 8.85147 38.2319 5.90106 35.7285 4.02353C37.4272 2.59303 39.7518 1.78838 42.1658 1.78838C47.9772 1.69897 52.6263 6.3481 52.6263 12.0701Z" fill="#F79E1B"/>
</svg>
