<svg width="72" height="29" viewBox="0 0 72 29" fill="none" xmlns="http://www.w3.org/2000/svg">
<g clip-path="url(#clip0_24_2347)">
<path d="M39.9974 7.06313L35.6165 16.3614H35.2589V5.09619H29.0898V24.2291H34.3648C35.7953 24.2291 36.9576 23.4245 37.5834 22.1728L41.9643 12.8745H42.322V24.2291H48.491V5.09619H43.216C41.7855 5.09619 40.5338 5.81144 39.9974 7.06313Z" fill="#319B42"/>
<path d="M17.199 7.59962L14.6062 16.4508H14.2486L11.6558 7.59962C11.2981 6.07971 9.86765 5.00684 8.34774 5.00684H2.17871V24.1398H8.16893V12.8746H8.52655L12.0134 24.2292H16.3943L19.8811 12.8746H20.2388V24.2292H26.4078V5.09624H20.2388C18.9871 5.09624 17.5566 6.07971 17.199 7.59962Z" fill="#319B42"/>
<path d="M50.9941 13.7686V24.2291H57.1632V18.0601H63.6898C66.4614 18.0601 68.9648 16.272 69.8589 13.6792C69.7695 13.7686 50.9941 13.7686 50.9941 13.7686Z" fill="#319B42"/>
<path d="M63.5115 5.09619H50.1006C50.9052 9.5665 54.8391 12.8745 59.5776 12.8745H70.0382C70.1276 12.5169 70.1276 11.9805 70.1276 11.6228C70.217 7.95719 67.2666 5.09619 63.5115 5.09619Z" fill="url(#paint0_linear_24_2347)"/>
</g>
<defs>
<linearGradient id="paint0_linear_24_2347" x1="50.1006" y1="8.98536" x2="70.1296" y2="8.98536" gradientUnits="userSpaceOnUse">
<stop stop-color="#00A3E1"/>
<stop offset="0.3042" stop-color="#009ADD"/>
<stop offset="0.7987" stop-color="#0082D4"/>
<stop offset="1" stop-color="#0076CF"/>
</linearGradient>
<clipPath id="clip0_24_2347">
<rect width="71.53" height="28.61" fill="white" transform="translate(0.0302734)"/>
</clipPath>
</defs>
</svg>
