<svg width="73" height="29" viewBox="0 0 73 29" fill="none" xmlns="http://www.w3.org/2000/svg">
<path d="M44.5908 4.55957C40.2993 4.55957 36.4548 6.79473 36.4548 10.9968C36.4548 15.7354 43.2497 16.093 43.2497 18.4175C43.2497 19.4904 42.0874 20.2951 40.1205 20.2951C37.3489 20.2951 35.2926 18.954 35.2926 18.954L34.3985 23.1561C34.3985 23.1561 36.7231 24.2289 40.0311 24.2289C44.7696 24.2289 48.4353 21.9044 48.4353 17.7023C48.4353 12.6955 41.6404 12.3379 41.6404 10.2816C41.6404 9.47691 42.5345 8.58285 44.5014 8.58285C46.7366 8.58285 48.5247 9.47691 48.5247 9.47691L49.4187 5.45363C49.3293 5.36423 47.3624 4.55957 44.5908 4.55957ZM5.16265 4.82779L5.07324 5.54304C5.07324 5.54304 6.95077 5.90066 8.47068 6.61591C10.527 7.42057 10.7058 7.7782 11.0635 9.2087L14.9079 23.9607H20.0041L27.9612 5.0066H22.8651L17.7689 17.9705L15.6232 6.97354C15.5338 5.63245 14.4609 5.0066 13.2986 5.0066C13.4774 4.82779 5.16265 4.82779 5.16265 4.82779ZM30.1964 4.82779L26.1731 23.7819H31.1799L35.2031 4.82779H30.1964ZM57.5547 4.82779C56.3924 4.82779 55.6772 5.45363 55.3196 6.52651L48.0776 23.7819H53.1738L54.2467 20.9209H60.5051L61.131 23.7819H65.6907L61.9356 4.82779H57.5547ZM58.27 9.92395L59.8793 17.1659H55.856L58.27 9.92395Z" fill="#1434CB"/>
</svg>
