<svg width="72" height="29" viewBox="0 0 72 29" fill="none" xmlns="http://www.w3.org/2000/svg">
<path d="M38.9169 16.5404V21.726H36.5029V7.24219H40.4368C42.0461 7.24219 43.3872 7.59981 44.1919 8.22566C44.9965 8.8515 45.533 10.0138 45.533 11.6231C45.533 12.4277 45.3541 13.2324 45.1753 13.7688C44.9965 14.3947 44.5495 14.9311 44.1919 15.1993C43.7448 15.557 43.2084 15.8252 42.5826 16.004C41.9567 16.1828 41.1521 16.3616 40.4368 16.3616H38.9169V16.5404ZM38.9169 9.47734V14.3947H40.258C41.0626 14.3947 41.8673 14.2159 42.4037 13.7688C42.8508 13.4112 43.2084 12.7854 43.2084 11.8019C43.2084 10.9972 43.0296 10.3714 42.5826 10.0138C42.1355 9.65616 41.2415 9.56675 40.4368 9.56675H38.9169V9.47734Z" fill="black"/>
<path d="M52.5066 18.418H48.5727L47.5892 21.6366H45.2646L49.1985 7.15283H52.3277L56.0828 21.6366H53.49L52.5066 18.418ZM50.5396 9.83502L48.7515 16.5405H52.1489L50.5396 9.83502Z" fill="black"/>
<path d="M59.3012 21.726V15.557L55.1885 7.24219H57.9601L60.7317 13.143L63.5033 7.24219H65.9172L61.9834 15.557V21.726H59.3012Z" fill="black"/>
<path d="M18.6217 26.822C25.3864 26.822 30.8704 21.3381 30.8704 14.5734C30.8704 7.80862 25.3864 2.32471 18.6217 2.32471C11.857 2.32471 6.37305 7.80862 6.37305 14.5734C6.37305 21.3381 11.857 26.822 18.6217 26.822Z" fill="#FC3F1D"/>
<path d="M23.0023 22.1727H20.4095V9.03003H19.2473C17.1015 9.03003 16.0286 10.1923 16.0286 11.8016C16.0286 13.5897 16.8333 14.5732 18.4426 15.5567L19.7837 16.5402L15.8498 22.3516H12.8994L16.2969 16.9872C14.3299 15.5567 13.1676 14.2156 13.1676 11.8016C13.1676 8.85121 15.3134 6.88428 19.0684 6.88428H23.0023V22.1727Z" fill="white"/>
</svg>
