<svg width="96" height="16" viewBox="0 0 96 16" fill="none" xmlns="http://www.w3.org/2000/svg">
<path d="M7.52169 2.30205C7.67534 1.99076 7.75217 1.83511 7.85647 1.78538C7.94722 1.74211 8.05264 1.74211 8.14339 1.78538C8.24769 1.83511 8.32452 1.99076 8.47817 2.30205L9.93596 5.25536C9.98132 5.34726 10.004 5.39321 10.0372 5.42889C10.0665 5.46048 10.1017 5.48607 10.1408 5.50425C10.185 5.52479 10.2357 5.5322 10.3371 5.54702L13.5979 6.02364C13.9413 6.07383 14.113 6.09893 14.1924 6.1828C14.2616 6.25576 14.2941 6.35603 14.2809 6.45569C14.2658 6.57022 14.1415 6.69129 13.8929 6.93342L11.5342 9.23078C11.4607 9.3024 11.4239 9.33821 11.4002 9.38081C11.3792 9.41854 11.3657 9.45998 11.3605 9.50284C11.3547 9.55125 11.3633 9.60183 11.3807 9.703L11.9372 12.9479C11.9959 13.2902 12.0253 13.4613 11.9701 13.5628C11.9221 13.6512 11.8368 13.7132 11.738 13.7315C11.6243 13.7526 11.4707 13.6717 11.1633 13.5101L8.24817 11.9771C8.15734 11.9293 8.11193 11.9054 8.06408 11.896C8.02172 11.8877 7.97814 11.8877 7.93578 11.896C7.88793 11.9054 7.84252 11.9293 7.75169 11.9771L4.83653 13.5101C4.5292 13.6717 4.37553 13.7526 4.2619 13.7315C4.16304 13.7132 4.07773 13.6512 4.02974 13.5628C3.97459 13.4613 4.00394 13.2902 4.06263 12.9479L4.61918 9.703C4.63653 9.60183 4.6452 9.55125 4.63933 9.50284C4.63413 9.45998 4.62066 9.41854 4.59966 9.38081C4.57593 9.33821 4.53917 9.3024 4.46564 9.23078L2.10696 6.93342C1.85836 6.69129 1.73406 6.57022 1.71894 6.45569C1.70578 6.35603 1.73829 6.25576 1.80742 6.1828C1.88688 6.09893 2.05857 6.07383 2.40195 6.02364L5.66279 5.54702C5.7642 5.5322 5.81491 5.52479 5.85906 5.50425C5.89816 5.48607 5.93336 5.46048 5.96271 5.42889C5.99586 5.39321 6.01854 5.34726 6.0639 5.25536L7.52169 2.30205Z" fill="#006DAC"/>
<path d="M27.5217 2.30205C27.6753 1.99076 27.7522 1.83511 27.8565 1.78538C27.9472 1.74211 28.0526 1.74211 28.1434 1.78538C28.2477 1.83511 28.3245 1.99076 28.4782 2.30205L29.936 5.25536C29.9813 5.34726 30.004 5.39321 30.0372 5.42889C30.0665 5.46048 30.1017 5.48607 30.1408 5.50425C30.185 5.52479 30.2357 5.5322 30.3371 5.54702L33.5979 6.02364C33.9413 6.07383 34.113 6.09893 34.1924 6.1828C34.2616 6.25576 34.2941 6.35603 34.2809 6.45569C34.2658 6.57022 34.1415 6.69129 33.8929 6.93342L31.5342 9.23078C31.4607 9.3024 31.4239 9.33821 31.4002 9.38081C31.3792 9.41854 31.3657 9.45998 31.3605 9.50284C31.3547 9.55125 31.3633 9.60183 31.3807 9.703L31.9372 12.9479C31.9959 13.2902 32.0253 13.4613 31.9701 13.5628C31.9221 13.6512 31.8368 13.7132 31.738 13.7315C31.6243 13.7526 31.4707 13.6717 31.1633 13.5101L28.2482 11.9771C28.1573 11.9293 28.1119 11.9054 28.0641 11.896C28.0217 11.8877 27.9781 11.8877 27.9358 11.896C27.8879 11.9054 27.8425 11.9293 27.7517 11.9771L24.8365 13.5101C24.5292 13.6717 24.3755 13.7526 24.2619 13.7315C24.163 13.7132 24.0777 13.6512 24.0297 13.5628C23.9746 13.4613 24.0039 13.2902 24.0626 12.9479L24.6192 9.703C24.6365 9.60183 24.6452 9.55125 24.6393 9.50284C24.6341 9.45998 24.6207 9.41854 24.5997 9.38081C24.5759 9.33821 24.5392 9.3024 24.4656 9.23078L22.107 6.93342C21.8584 6.69129 21.7341 6.57022 21.7189 6.45569C21.7058 6.35603 21.7383 6.25576 21.8074 6.1828C21.8869 6.09893 22.0586 6.07383 22.4019 6.02364L25.6628 5.54702C25.7642 5.5322 25.8149 5.52479 25.8591 5.50425C25.8982 5.48607 25.9334 5.46048 25.9627 5.42889C25.9959 5.39321 26.0185 5.34726 26.0639 5.25536L27.5217 2.30205Z" fill="#006DAC"/>
<path d="M47.5217 2.30205C47.6753 1.99076 47.7522 1.83511 47.8565 1.78538C47.9472 1.74211 48.0526 1.74211 48.1434 1.78538C48.2477 1.83511 48.3245 1.99076 48.4782 2.30205L49.936 5.25536C49.9813 5.34726 50.004 5.39321 50.0372 5.42889C50.0665 5.46048 50.1017 5.48607 50.1408 5.50425C50.185 5.52479 50.2357 5.5322 50.3371 5.54702L53.5979 6.02364C53.9413 6.07383 54.113 6.09893 54.1924 6.1828C54.2616 6.25576 54.2941 6.35603 54.2809 6.45569C54.2658 6.57022 54.1415 6.69129 53.8929 6.93342L51.5342 9.23078C51.4607 9.3024 51.4239 9.33821 51.4002 9.38081C51.3792 9.41854 51.3657 9.45998 51.3605 9.50284C51.3547 9.55125 51.3633 9.60183 51.3807 9.703L51.9372 12.9479C51.9959 13.2902 52.0253 13.4613 51.9701 13.5628C51.9221 13.6512 51.8368 13.7132 51.738 13.7315C51.6243 13.7526 51.4707 13.6717 51.1633 13.5101L48.2482 11.9771C48.1573 11.9293 48.1119 11.9054 48.0641 11.896C48.0217 11.8877 47.9781 11.8877 47.9358 11.896C47.8879 11.9054 47.8425 11.9293 47.7517 11.9771L44.8365 13.5101C44.5292 13.6717 44.3755 13.7526 44.2619 13.7315C44.163 13.7132 44.0777 13.6512 44.0297 13.5628C43.9746 13.4613 44.0039 13.2902 44.0626 12.9479L44.6192 9.703C44.6365 9.60183 44.6452 9.55125 44.6393 9.50284C44.6341 9.45998 44.6207 9.41854 44.5997 9.38081C44.5759 9.33821 44.5392 9.3024 44.4656 9.23078L42.107 6.93342C41.8584 6.69129 41.7341 6.57022 41.7189 6.45569C41.7058 6.35603 41.7383 6.25576 41.8074 6.1828C41.8869 6.09893 42.0586 6.07383 42.4019 6.02364L45.6628 5.54702C45.7642 5.5322 45.8149 5.52479 45.8591 5.50425C45.8982 5.48607 45.9334 5.46048 45.9627 5.42889C45.9959 5.39321 46.0185 5.34726 46.0639 5.25536L47.5217 2.30205Z" fill="#006DAC"/>
<path d="M67.5217 2.30205C67.6753 1.99076 67.7522 1.83511 67.8565 1.78538C67.9472 1.74211 68.0526 1.74211 68.1434 1.78538C68.2477 1.83511 68.3245 1.99076 68.4782 2.30205L69.936 5.25536C69.9813 5.34726 70.004 5.39321 70.0372 5.42889C70.0665 5.46048 70.1017 5.48607 70.1408 5.50425C70.185 5.52479 70.2357 5.5322 70.3371 5.54702L73.5979 6.02364C73.9413 6.07383 74.113 6.09893 74.1924 6.1828C74.2616 6.25576 74.2941 6.35603 74.2809 6.45569C74.2658 6.57022 74.1415 6.69129 73.8929 6.93342L71.5342 9.23078C71.4607 9.3024 71.4239 9.33821 71.4002 9.38081C71.3792 9.41854 71.3657 9.45998 71.3605 9.50284C71.3547 9.55125 71.3633 9.60183 71.3807 9.703L71.9372 12.9479C71.9959 13.2902 72.0253 13.4613 71.9701 13.5628C71.9221 13.6512 71.8368 13.7132 71.738 13.7315C71.6243 13.7526 71.4707 13.6717 71.1633 13.5101L68.2482 11.9771C68.1573 11.9293 68.1119 11.9054 68.0641 11.896C68.0217 11.8877 67.9781 11.8877 67.9358 11.896C67.8879 11.9054 67.8425 11.9293 67.7517 11.9771L64.8365 13.5101C64.5292 13.6717 64.3755 13.7526 64.2619 13.7315C64.163 13.7132 64.0777 13.6512 64.0297 13.5628C63.9746 13.4613 64.0039 13.2902 64.0626 12.9479L64.6192 9.703C64.6365 9.60183 64.6452 9.55125 64.6393 9.50284C64.6341 9.45998 64.6207 9.41854 64.5997 9.38081C64.5759 9.33821 64.5392 9.3024 64.4656 9.23078L62.107 6.93342C61.8584 6.69129 61.7341 6.57022 61.7189 6.45569C61.7058 6.35603 61.7383 6.25576 61.8074 6.1828C61.8869 6.09893 62.0586 6.07383 62.4019 6.02364L65.6628 5.54702C65.7642 5.5322 65.8149 5.52479 65.8591 5.50425C65.8982 5.48607 65.9334 5.46048 65.9627 5.42889C65.9959 5.39321 66.0185 5.34726 66.0639 5.25536L67.5217 2.30205Z" fill="#006DAC"/>
<path d="M87.5217 2.30205C87.6753 1.99076 87.7522 1.83511 87.8565 1.78538C87.9472 1.74211 88.0526 1.74211 88.1434 1.78538C88.2477 1.83511 88.3245 1.99076 88.4782 2.30205L89.936 5.25536C89.9813 5.34726 90.004 5.39321 90.0372 5.42889C90.0665 5.46048 90.1017 5.48607 90.1408 5.50425C90.185 5.52479 90.2357 5.5322 90.3371 5.54702L93.5979 6.02364C93.9413 6.07383 94.113 6.09893 94.1924 6.1828C94.2616 6.25576 94.2941 6.35603 94.2809 6.45569C94.2658 6.57022 94.1415 6.69129 93.8929 6.93342L91.5342 9.23078C91.4607 9.3024 91.4239 9.33821 91.4002 9.38081C91.3792 9.41854 91.3657 9.45998 91.3605 9.50284C91.3547 9.55125 91.3633 9.60183 91.3807 9.703L91.9372 12.9479C91.9959 13.2902 92.0253 13.4613 91.9701 13.5628C91.9221 13.6512 91.8368 13.7132 91.738 13.7315C91.6243 13.7526 91.4707 13.6717 91.1633 13.5101L88.2482 11.9771C88.1573 11.9293 88.1119 11.9054 88.0641 11.896C88.0217 11.8877 87.9781 11.8877 87.9358 11.896C87.8879 11.9054 87.8425 11.9293 87.7517 11.9771L84.8365 13.5101C84.5292 13.6717 84.3755 13.7526 84.2619 13.7315C84.163 13.7132 84.0777 13.6512 84.0297 13.5628C83.9746 13.4613 84.0039 13.2902 84.0626 12.9479L84.6192 9.703C84.6365 9.60183 84.6452 9.55125 84.6393 9.50284C84.6341 9.45998 84.6207 9.41854 84.5997 9.38081C84.5759 9.33821 84.5392 9.3024 84.4656 9.23078L82.107 6.93342C81.8584 6.69129 81.7341 6.57022 81.7189 6.45569C81.7058 6.35603 81.7383 6.25576 81.8074 6.1828C81.8869 6.09893 82.0586 6.07383 82.4019 6.02364L85.6628 5.54702C85.7642 5.5322 85.8149 5.52479 85.8591 5.50425C85.8982 5.48607 85.9334 5.46048 85.9627 5.42889C85.9959 5.39321 86.0185 5.34726 86.0639 5.25536L87.5217 2.30205Z" fill="#006DAC"/>
</svg>
